<svg xmlns="http://www.w3.org/2000/svg" xmlns:xlink="http://www.w3.org/1999/xlink" width="500" zoomAndPan="magnify" viewBox="0 0 375 374.999991" height="500" preserveAspectRatio="xMidYMid meet" version="1.0"><defs><g/><clipPath id="d3d637f405"><path d="M 126.109375 93.433594 L 249 93.433594 L 249 214.152344 L 126.109375 214.152344 Z M 126.109375 93.433594 " clip-rule="nonzero"/></clipPath></defs><g fill="#ffffff" fill-opacity="1"><g transform="translate(112.023946, 248.727552)"><g><path d="M 11.703125 -20.390625 L 11.703125 -17.78125 C 11.703125 -17.507812 11.5625 -17.375 11.28125 -17.375 L 4.84375 -17.375 L 4.84375 -12.140625 L 9.71875 -12.140625 C 10 -12.140625 10.140625 -12 10.140625 -11.71875 L 10.140625 -9.125 C 10.140625 -8.84375 10 -8.703125 9.71875 -8.703125 L 4.84375 -8.703125 L 4.84375 -0.421875 C 4.84375 -0.140625 4.703125 0 4.421875 0 L 1.71875 0 C 1.4375 0 1.296875 -0.140625 1.296875 -0.421875 L 1.296875 -20.390625 C 1.296875 -20.660156 1.4375 -20.796875 1.71875 -20.796875 L 11.28125 -20.796875 C 11.5625 -20.796875 11.703125 -20.660156 11.703125 -20.390625 Z M 11.703125 -20.390625 "/></g></g></g><g fill="#ffffff" fill-opacity="1"><g transform="translate(125.800051, 248.727552)"><g><path d="M 11.671875 -20.390625 L 11.671875 -17.78125 C 11.671875 -17.488281 11.535156 -17.34375 11.265625 -17.34375 L 4.765625 -17.34375 L 4.765625 -12.140625 L 9.71875 -12.140625 C 10 -12.140625 10.140625 -11.992188 10.140625 -11.703125 L 10.140625 -9.125 C 10.140625 -8.832031 10 -8.6875 9.71875 -8.6875 L 4.765625 -8.6875 L 4.765625 -3.4375 L 11.265625 -3.4375 C 11.535156 -3.4375 11.671875 -3.296875 11.671875 -3.015625 L 11.671875 -0.421875 C 11.671875 -0.140625 11.535156 0 11.265625 0 L 1.6875 0 C 1.425781 0 1.296875 -0.140625 1.296875 -0.421875 L 1.296875 -20.390625 C 1.296875 -20.660156 1.425781 -20.796875 1.6875 -20.796875 L 11.265625 -20.796875 C 11.535156 -20.796875 11.671875 -20.660156 11.671875 -20.390625 Z M 11.671875 -20.390625 "/></g></g></g><g fill="#ffffff" fill-opacity="1"><g transform="translate(139.550166, 248.727552)"><g><path d="M 11.671875 -20.390625 L 11.671875 -17.78125 C 11.671875 -17.488281 11.535156 -17.34375 11.265625 -17.34375 L 4.765625 -17.34375 L 4.765625 -12.140625 L 9.71875 -12.140625 C 10 -12.140625 10.140625 -11.992188 10.140625 -11.703125 L 10.140625 -9.125 C 10.140625 -8.832031 10 -8.6875 9.71875 -8.6875 L 4.765625 -8.6875 L 4.765625 -3.4375 L 11.265625 -3.4375 C 11.535156 -3.4375 11.671875 -3.296875 11.671875 -3.015625 L 11.671875 -0.421875 C 11.671875 -0.140625 11.535156 0 11.265625 0 L 1.6875 0 C 1.425781 0 1.296875 -0.140625 1.296875 -0.421875 L 1.296875 -20.390625 C 1.296875 -20.660156 1.425781 -20.796875 1.6875 -20.796875 L 11.265625 -20.796875 C 11.535156 -20.796875 11.671875 -20.660156 11.671875 -20.390625 Z M 11.671875 -20.390625 "/></g></g></g><g fill="#ffffff" fill-opacity="1"><g transform="translate(153.300281, 248.727552)"><g><path d="M 1.296875 -0.421875 L 1.296875 -20.390625 C 1.296875 -20.660156 1.4375 -20.796875 1.71875 -20.796875 L 7.953125 -20.796875 C 9.179688 -20.796875 10.113281 -20.472656 10.75 -19.828125 C 11.382812 -19.191406 11.703125 -18.257812 11.703125 -17.03125 L 11.703125 -3.75 C 11.703125 -2.53125 11.382812 -1.597656 10.75 -0.953125 C 10.113281 -0.316406 9.179688 0 7.953125 0 L 1.71875 0 C 1.4375 0 1.296875 -0.140625 1.296875 -0.421875 Z M 4.84375 -3.4375 L 7.234375 -3.4375 C 7.921875 -3.4375 8.265625 -3.78125 8.265625 -4.46875 L 8.265625 -16.296875 C 8.265625 -17.015625 7.921875 -17.375 7.234375 -17.375 L 4.84375 -17.375 Z M 4.84375 -3.4375 "/></g></g></g><g fill="#ffffff" fill-opacity="1"><g transform="translate(167.076386, 248.727552)"><g><path d="M 11.703125 -20.390625 L 11.703125 -17.78125 C 11.703125 -17.507812 11.5625 -17.375 11.28125 -17.375 L 4.84375 -17.375 L 4.84375 -12.140625 L 9.71875 -12.140625 C 10 -12.140625 10.140625 -12 10.140625 -11.71875 L 10.140625 -9.125 C 10.140625 -8.84375 10 -8.703125 9.71875 -8.703125 L 4.84375 -8.703125 L 4.84375 -0.421875 C 4.84375 -0.140625 4.703125 0 4.421875 0 L 1.71875 0 C 1.4375 0 1.296875 -0.140625 1.296875 -0.421875 L 1.296875 -20.390625 C 1.296875 -20.660156 1.4375 -20.796875 1.71875 -20.796875 L 11.28125 -20.796875 C 11.5625 -20.796875 11.703125 -20.660156 11.703125 -20.390625 Z M 11.703125 -20.390625 "/></g></g></g><g fill="#ffffff" fill-opacity="1"><g transform="translate(180.852491, 248.727552)"><g><path d="M 1.296875 -3.75 L 1.296875 -17.0625 C 1.296875 -18.289062 1.613281 -19.21875 2.25 -19.84375 C 2.894531 -20.476562 3.828125 -20.796875 5.046875 -20.796875 L 7.953125 -20.796875 C 9.179688 -20.796875 10.113281 -20.476562 10.75 -19.84375 C 11.382812 -19.21875 11.703125 -18.289062 11.703125 -17.0625 L 11.703125 -3.75 C 11.703125 -2.53125 11.382812 -1.597656 10.75 -0.953125 C 10.113281 -0.316406 9.179688 0 7.953125 0 L 5.046875 0 C 3.828125 0 2.894531 -0.316406 2.25 -0.953125 C 1.613281 -1.597656 1.296875 -2.53125 1.296875 -3.75 Z M 5.796875 -3.359375 L 7.3125 -3.359375 C 8 -3.359375 8.34375 -3.703125 8.34375 -4.390625 L 8.34375 -16.40625 C 8.34375 -17.101562 8 -17.453125 7.3125 -17.453125 L 5.796875 -17.453125 C 5.109375 -17.453125 4.765625 -17.101562 4.765625 -16.40625 L 4.765625 -4.390625 C 4.765625 -3.703125 5.109375 -3.359375 5.796875 -3.359375 Z M 5.796875 -3.359375 "/></g></g></g><g fill="#ffffff" fill-opacity="1"><g transform="translate(194.628596, 248.727552)"><g><path d="M 11.984375 -17.0625 L 11.984375 -10.71875 C 11.984375 -8.976562 11.351562 -7.832031 10.09375 -7.28125 L 11.875 -0.46875 C 11.96875 -0.15625 11.847656 0 11.515625 0 L 8.8125 0 C 8.570312 0 8.425781 -0.117188 8.375 -0.359375 L 6.625 -6.96875 L 4.84375 -6.96875 L 4.84375 -0.421875 C 4.84375 -0.140625 4.703125 0 4.421875 0 L 1.71875 0 C 1.4375 0 1.296875 -0.140625 1.296875 -0.421875 L 1.296875 -20.390625 C 1.296875 -20.660156 1.4375 -20.796875 1.71875 -20.796875 L 8.234375 -20.796875 C 9.472656 -20.796875 10.40625 -20.476562 11.03125 -19.84375 C 11.664062 -19.21875 11.984375 -18.289062 11.984375 -17.0625 Z M 4.84375 -10.40625 L 7.40625 -10.40625 C 8.101562 -10.40625 8.453125 -10.75 8.453125 -11.4375 L 8.453125 -16.328125 C 8.453125 -17.023438 8.101562 -17.375 7.40625 -17.375 L 4.84375 -17.375 Z M 4.84375 -10.40625 "/></g></g></g><g fill="#ffffff" fill-opacity="1"><g transform="translate(208.690625, 248.727552)"><g><path d="M 15.515625 -20.796875 L 17.984375 -20.796875 C 18.347656 -20.796875 18.515625 -20.613281 18.484375 -20.25 L 16.25 -0.5 C 16.226562 -0.164062 16.046875 0 15.703125 0 L 13.15625 0 C 12.863281 0 12.671875 -0.15625 12.578125 -0.46875 L 9.875 -12.21875 L 7.15625 -0.4375 C 7.0625 -0.144531 6.867188 0 6.578125 0 L 3.984375 0 C 3.628906 0 3.445312 -0.164062 3.4375 -0.5 L 1.296875 -20.25 C 1.265625 -20.613281 1.429688 -20.796875 1.796875 -20.796875 L 4.265625 -20.796875 C 4.597656 -20.796875 4.78125 -20.632812 4.8125 -20.3125 L 5.828125 -8.140625 L 5.953125 -8.140625 L 8.53125 -20.328125 C 8.613281 -20.640625 8.800781 -20.796875 9.09375 -20.796875 L 10.65625 -20.796875 C 10.96875 -20.796875 11.160156 -20.640625 11.234375 -20.328125 L 13.78125 -8.140625 L 13.90625 -8.140625 L 14.96875 -20.3125 C 15.007812 -20.632812 15.191406 -20.796875 15.515625 -20.796875 Z M 15.515625 -20.796875 "/></g></g></g><g fill="#ffffff" fill-opacity="1"><g transform="translate(229.25069, 248.727552)"><g><path d="M 13.828125 0 L 11.078125 0 C 10.847656 0 10.707031 -0.117188 10.65625 -0.359375 L 9.9375 -4.15625 L 5.296875 -4.15625 L 4.609375 -0.359375 C 4.554688 -0.117188 4.414062 0 4.1875 0 L 1.40625 0 C 1.09375 0 0.976562 -0.144531 1.0625 -0.4375 L 5.375 -20.4375 C 5.425781 -20.675781 5.578125 -20.796875 5.828125 -20.796875 L 9.4375 -20.796875 C 9.675781 -20.796875 9.820312 -20.675781 9.875 -20.4375 L 14.203125 -0.4375 C 14.253906 -0.144531 14.128906 0 13.828125 0 Z M 9.28125 -7.171875 L 7.625 -16.25 L 5.953125 -7.171875 Z M 9.28125 -7.171875 "/></g></g></g><g fill="#ffffff" fill-opacity="1"><g transform="translate(245.262118, 248.727552)"><g><path d="M 11.984375 -17.0625 L 11.984375 -10.71875 C 11.984375 -8.976562 11.351562 -7.832031 10.09375 -7.28125 L 11.875 -0.46875 C 11.96875 -0.15625 11.847656 0 11.515625 0 L 8.8125 0 C 8.570312 0 8.425781 -0.117188 8.375 -0.359375 L 6.625 -6.96875 L 4.84375 -6.96875 L 4.84375 -0.421875 C 4.84375 -0.140625 4.703125 0 4.421875 0 L 1.71875 0 C 1.4375 0 1.296875 -0.140625 1.296875 -0.421875 L 1.296875 -20.390625 C 1.296875 -20.660156 1.4375 -20.796875 1.71875 -20.796875 L 8.234375 -20.796875 C 9.472656 -20.796875 10.40625 -20.476562 11.03125 -19.84375 C 11.664062 -19.21875 11.984375 -18.289062 11.984375 -17.0625 Z M 4.84375 -10.40625 L 7.40625 -10.40625 C 8.101562 -10.40625 8.453125 -10.75 8.453125 -11.4375 L 8.453125 -16.328125 C 8.453125 -17.023438 8.101562 -17.375 7.40625 -17.375 L 4.84375 -17.375 Z M 4.84375 -10.40625 "/></g></g></g><g fill="#ffffff" fill-opacity="1"><g transform="translate(259.324137, 248.727552)"><g><path d="M 1.296875 -0.421875 L 1.296875 -20.390625 C 1.296875 -20.660156 1.4375 -20.796875 1.71875 -20.796875 L 7.953125 -20.796875 C 9.179688 -20.796875 10.113281 -20.472656 10.75 -19.828125 C 11.382812 -19.191406 11.703125 -18.257812 11.703125 -17.03125 L 11.703125 -3.75 C 11.703125 -2.53125 11.382812 -1.597656 10.75 -0.953125 C 10.113281 -0.316406 9.179688 0 7.953125 0 L 1.71875 0 C 1.4375 0 1.296875 -0.140625 1.296875 -0.421875 Z M 4.84375 -3.4375 L 7.234375 -3.4375 C 7.921875 -3.4375 8.265625 -3.78125 8.265625 -4.46875 L 8.265625 -16.296875 C 8.265625 -17.015625 7.921875 -17.375 7.234375 -17.375 L 4.84375 -17.375 Z M 4.84375 -3.4375 "/></g></g></g><path fill="#ffffff" d="M 141.148438 162.457031 C 140.191406 162.457031 139.554688 161.820312 139.554688 160.863281 C 139.554688 159.90625 140.191406 159.265625 141.148438 159.265625 L 233.847656 159.265625 C 234.804688 159.265625 235.445312 159.90625 235.445312 160.863281 C 235.445312 161.820312 234.804688 162.457031 233.847656 162.457031 Z M 141.148438 162.457031 " fill-opacity="1" fill-rule="nonzero"/><g clip-path="url(#d3d637f405)"><path fill="#ffffff" d="M 244.722656 112.574219 L 243.765625 110.980469 L 234.804688 94.359375 C 234.484375 93.71875 233.527344 93.402344 232.890625 93.71875 C 232.253906 94.039062 232.253906 94.996094 232.570312 95.636719 L 240.894531 110.980469 L 235.46875 114.171875 L 226.828125 98.507812 C 226.507812 97.871094 225.867188 97.871094 225.230469 98.1875 C 224.59375 98.507812 224.273438 99.144531 224.59375 99.785156 L 232.914062 115.445312 L 227.488281 118.320312 L 219.167969 102.976562 C 218.847656 102.335938 217.890625 102.019531 217.253906 102.335938 C 216.613281 102.65625 216.292969 103.613281 216.613281 104.253906 L 225.894531 120.554688 L 226.851562 122.46875 C 228.765625 126.296875 233.554688 128.851562 238.046875 126.617188 C 239.960938 130.128906 241.238281 133.957031 242.511719 138.128906 C 243.789062 142.917969 244.429688 147.730469 244.429688 152.835938 C 244.429688 168.496094 238.046875 182.566406 227.808594 193.121094 C 217.570312 203.359375 203.183594 209.742188 187.523438 209.742188 C 171.859375 209.742188 157.472656 203.359375 147.238281 193.121094 C 137 182.566406 130.617188 168.496094 130.617188 152.835938 C 130.617188 147.730469 131.253906 142.917969 132.53125 138.128906 C 133.488281 134.300781 135.085938 130.445312 137 126.617188 C 141.148438 128.851562 145.640625 125.019531 148.515625 121.828125 C 150.429688 119.59375 152.023438 116.722656 153.300781 113.828125 C 154.257812 110.953125 154.578125 107.761719 154.257812 105.183594 C 153.941406 101.992188 152.34375 99.757812 149.789062 98.164062 C 146.917969 96.566406 143.726562 96.886719 140.832031 98.164062 C 138.277344 99.441406 136.042969 101.675781 134.128906 103.910156 C 132.507812 106.511719 130.914062 109.382812 129.953125 112.253906 C 128.679688 116.722656 128.359375 122.171875 132.828125 124.726562 C 130.914062 128.554688 129.316406 132.730469 128.039062 136.878906 C 126.761719 141.984375 126.125 147.433594 126.125 152.859375 C 126.125 169.800781 132.828125 185.140625 144.023438 196.335938 C 155.214844 207.53125 170.558594 214.234375 187.5 214.234375 C 204.4375 214.234375 219.78125 207.53125 230.976562 196.335938 C 242.167969 185.140625 248.871094 169.800781 248.871094 152.859375 C 248.871094 147.433594 248.234375 141.984375 246.957031 136.878906 C 245.679688 132.730469 244.085938 128.554688 242.167969 124.40625 C 246.636719 122.171875 246.957031 116.746094 244.722656 112.574219 Z M 244.722656 112.574219 " fill-opacity="1" fill-rule="nonzero"/></g><path fill="#ffffff" d="M 191.328125 106.511719 C 190.371094 105.554688 189.09375 104.914062 187.5 104.914062 C 185.902344 104.914062 184.625 105.554688 183.351562 106.511719 C 182.390625 107.789062 181.753906 109.0625 181.753906 110.660156 C 181.753906 110.660156 181.753906 110.980469 181.753906 111.296875 C 171.515625 112.574219 161.941406 117.363281 155.214844 124.726562 C 147.851562 132.410156 143.0625 142.304688 142.425781 153.816406 C 142.425781 154.773438 143.0625 155.414062 144.023438 155.414062 L 230.976562 155.414062 C 231.933594 155.414062 232.570312 154.773438 232.570312 153.816406 C 231.933594 142.621094 227.144531 132.410156 219.78125 124.726562 C 212.757812 117.386719 203.480469 112.574219 192.925781 111.296875 C 193.242188 110.980469 193.242188 110.660156 193.242188 110.660156 C 193.242188 109.0625 192.605469 107.789062 191.328125 106.511719 Z M 222.015625 148.074219 C 221.058594 142.648438 218.503906 138.15625 215.3125 134.007812 C 212.121094 129.855469 208.292969 126.664062 203.480469 124.089844 C 202.523438 123.769531 202.203125 122.8125 202.84375 122.171875 C 203.160156 121.214844 204.117188 120.898438 204.757812 121.214844 C 209.863281 123.769531 214.355469 127.597656 217.867188 132.089844 C 221.375 136.558594 223.929688 141.691406 225.207031 147.117188 C 225.527344 148.074219 224.886719 149.03125 223.929688 149.03125 C 223.292969 149.347656 222.335938 148.710938 222.015625 148.074219 Z M 200.289062 122.8125 C 199.652344 122.492188 198.691406 122.171875 198.054688 121.855469 C 197.097656 121.535156 196.457031 121.535156 195.5 121.214844 C 194.542969 121.214844 194.226562 120.257812 194.226562 119.300781 C 194.542969 118.664062 195.5 118.023438 196.140625 118.34375 C 197.097656 118.34375 198.054688 118.664062 199.011719 118.980469 C 199.96875 119.300781 200.609375 119.621094 201.566406 119.9375 C 202.203125 120.257812 202.84375 121.214844 202.523438 121.855469 C 202.203125 122.8125 201.246094 123.128906 200.289062 122.8125 Z M 200.289062 122.8125 " fill-opacity="1" fill-rule="nonzero"/><path fill="#ffffff" d="M 207.308594 189.609375 C 208.265625 188.972656 209.863281 189.292969 210.5 190.566406 C 211.140625 191.523438 210.820312 192.800781 209.863281 193.441406 C 206.351562 195.675781 202.84375 197.269531 198.988281 198.226562 C 195.15625 199.503906 191.304688 200.140625 187.472656 200.140625 C 183.644531 200.140625 179.789062 199.503906 175.960938 198.226562 C 172.128906 197.269531 168.621094 195.675781 165.085938 193.441406 C 164.128906 192.800781 163.808594 191.523438 164.445312 190.566406 C 165.085938 189.292969 166.363281 188.972656 167.636719 189.609375 C 170.511719 191.523438 173.703125 193.121094 177.238281 194.078125 C 180.429688 195.035156 183.9375 195.355469 187.472656 195.355469 C 190.984375 195.355469 194.496094 195.035156 197.710938 194.078125 C 201.246094 193.144531 204.4375 191.523438 207.308594 189.609375 Z M 207.308594 189.609375 " fill-opacity="1" fill-rule="nonzero"/><path fill="#ffffff" d="M 174.070312 172.992188 C 174.070312 173.324219 174.039062 173.65625 173.972656 173.988281 C 173.90625 174.316406 173.808594 174.636719 173.679688 174.945312 C 173.554688 175.253906 173.394531 175.546875 173.210938 175.828125 C 173.023438 176.105469 172.8125 176.363281 172.574219 176.601562 C 172.335938 176.839844 172.078125 177.050781 171.800781 177.234375 C 171.523438 177.421875 171.226562 177.578125 170.917969 177.707031 C 170.609375 177.835938 170.289062 177.933594 169.960938 178 C 169.632812 178.0625 169.300781 178.097656 168.964844 178.097656 C 168.628906 178.097656 168.296875 178.0625 167.96875 178 C 167.636719 177.933594 167.320312 177.835938 167.007812 177.707031 C 166.699219 177.578125 166.40625 177.421875 166.125 177.234375 C 165.847656 177.050781 165.589844 176.839844 165.351562 176.601562 C 165.117188 176.363281 164.902344 176.105469 164.71875 175.828125 C 164.53125 175.546875 164.375 175.253906 164.246094 174.945312 C 164.117188 174.636719 164.019531 174.316406 163.957031 173.988281 C 163.890625 173.65625 163.855469 173.324219 163.855469 172.992188 C 163.855469 172.65625 163.890625 172.324219 163.957031 171.996094 C 164.019531 171.664062 164.117188 171.347656 164.246094 171.035156 C 164.375 170.726562 164.53125 170.433594 164.71875 170.152344 C 164.902344 169.875 165.117188 169.617188 165.351562 169.378906 C 165.589844 169.144531 165.847656 168.929688 166.125 168.746094 C 166.40625 168.558594 166.699219 168.402344 167.007812 168.273438 C 167.320312 168.144531 167.636719 168.046875 167.96875 167.980469 C 168.296875 167.917969 168.628906 167.882812 168.964844 167.882812 C 169.300781 167.882812 169.632812 167.917969 169.960938 167.980469 C 170.289062 168.046875 170.609375 168.144531 170.917969 168.273438 C 171.226562 168.402344 171.523438 168.558594 171.800781 168.746094 C 172.078125 168.929688 172.335938 169.144531 172.574219 169.378906 C 172.8125 169.617188 173.023438 169.875 173.210938 170.152344 C 173.394531 170.433594 173.554688 170.726562 173.679688 171.035156 C 173.808594 171.347656 173.90625 171.664062 173.972656 171.996094 C 174.039062 172.324219 174.070312 172.65625 174.070312 172.992188 Z M 174.070312 172.992188 " fill-opacity="1" fill-rule="nonzero"/><path fill="#ffffff" d="M 211.140625 172.992188 C 211.140625 173.324219 211.105469 173.65625 211.042969 173.988281 C 210.976562 174.316406 210.878906 174.636719 210.75 174.945312 C 210.621094 175.253906 210.464844 175.546875 210.277344 175.828125 C 210.09375 176.105469 209.882812 176.363281 209.644531 176.601562 C 209.40625 176.839844 209.148438 177.050781 208.871094 177.234375 C 208.589844 177.421875 208.296875 177.578125 207.988281 177.707031 C 207.675781 177.835938 207.359375 177.933594 207.03125 178 C 206.699219 178.0625 206.367188 178.097656 206.035156 178.097656 C 205.699219 178.097656 205.367188 178.0625 205.035156 178 C 204.707031 177.933594 204.390625 177.835938 204.078125 177.707031 C 203.769531 177.578125 203.476562 177.421875 203.195312 177.234375 C 202.917969 177.050781 202.660156 176.839844 202.421875 176.601562 C 202.183594 176.363281 201.972656 176.105469 201.789062 175.828125 C 201.601562 175.546875 201.445312 175.253906 201.316406 174.945312 C 201.1875 174.636719 201.089844 174.316406 201.023438 173.988281 C 200.960938 173.65625 200.925781 173.324219 200.925781 172.992188 C 200.925781 172.65625 200.960938 172.324219 201.023438 171.996094 C 201.089844 171.664062 201.1875 171.347656 201.316406 171.035156 C 201.445312 170.726562 201.601562 170.433594 201.789062 170.152344 C 201.972656 169.875 202.183594 169.617188 202.421875 169.378906 C 202.660156 169.144531 202.917969 168.929688 203.195312 168.746094 C 203.476562 168.558594 203.769531 168.402344 204.078125 168.273438 C 204.390625 168.144531 204.707031 168.046875 205.035156 167.980469 C 205.367188 167.917969 205.699219 167.882812 206.035156 167.882812 C 206.367188 167.882812 206.699219 167.917969 207.03125 167.980469 C 207.359375 168.046875 207.675781 168.144531 207.988281 168.273438 C 208.296875 168.402344 208.589844 168.558594 208.871094 168.746094 C 209.148438 168.929688 209.40625 169.144531 209.644531 169.378906 C 209.882812 169.617188 210.09375 169.875 210.277344 170.152344 C 210.464844 170.433594 210.621094 170.726562 210.75 171.035156 C 210.878906 171.347656 210.976562 171.664062 211.042969 171.996094 C 211.105469 172.324219 211.140625 172.65625 211.140625 172.992188 Z M 211.140625 172.992188 " fill-opacity="1" fill-rule="nonzero"/></svg>