<svg xmlns="http://www.w3.org/2000/svg" xmlns:xlink="http://www.w3.org/1999/xlink" width="500" zoomAndPan="magnify" viewBox="0 0 375 374.999991" height="500" preserveAspectRatio="xMidYMid meet" version="1.0"><defs><g/><clipPath id="62655bfe9b"><path d="M 83.039062 197.59375 L 128 197.59375 L 128 241.832031 L 83.039062 241.832031 Z M 83.039062 197.59375 " clip-rule="nonzero"/></clipPath></defs><g fill="#ffffff" fill-opacity="1"><g transform="translate(152.053515, 230.504692)"><g><path d="M 11.703125 -20.390625 L 11.703125 -17.78125 C 11.703125 -17.507812 11.5625 -17.375 11.28125 -17.375 L 4.84375 -17.375 L 4.84375 -12.140625 L 9.71875 -12.140625 C 10 -12.140625 10.140625 -12 10.140625 -11.71875 L 10.140625 -9.125 C 10.140625 -8.84375 10 -8.703125 9.71875 -8.703125 L 4.84375 -8.703125 L 4.84375 -0.421875 C 4.84375 -0.140625 4.703125 0 4.421875 0 L 1.71875 0 C 1.4375 0 1.296875 -0.140625 1.296875 -0.421875 L 1.296875 -20.390625 C 1.296875 -20.660156 1.4375 -20.796875 1.71875 -20.796875 L 11.28125 -20.796875 C 11.5625 -20.796875 11.703125 -20.660156 11.703125 -20.390625 Z M 11.703125 -20.390625 "/></g></g></g><g fill="#ffffff" fill-opacity="1"><g transform="translate(165.829619, 230.504692)"><g><path d="M 11.671875 -20.390625 L 11.671875 -17.78125 C 11.671875 -17.488281 11.535156 -17.34375 11.265625 -17.34375 L 4.765625 -17.34375 L 4.765625 -12.140625 L 9.71875 -12.140625 C 10 -12.140625 10.140625 -11.992188 10.140625 -11.703125 L 10.140625 -9.125 C 10.140625 -8.832031 10 -8.6875 9.71875 -8.6875 L 4.765625 -8.6875 L 4.765625 -3.4375 L 11.265625 -3.4375 C 11.535156 -3.4375 11.671875 -3.296875 11.671875 -3.015625 L 11.671875 -0.421875 C 11.671875 -0.140625 11.535156 0 11.265625 0 L 1.6875 0 C 1.425781 0 1.296875 -0.140625 1.296875 -0.421875 L 1.296875 -20.390625 C 1.296875 -20.660156 1.425781 -20.796875 1.6875 -20.796875 L 11.265625 -20.796875 C 11.535156 -20.796875 11.671875 -20.660156 11.671875 -20.390625 Z M 11.671875 -20.390625 "/></g></g></g><g fill="#ffffff" fill-opacity="1"><g transform="translate(179.579735, 230.504692)"><g><path d="M 11.671875 -20.390625 L 11.671875 -17.78125 C 11.671875 -17.488281 11.535156 -17.34375 11.265625 -17.34375 L 4.765625 -17.34375 L 4.765625 -12.140625 L 9.71875 -12.140625 C 10 -12.140625 10.140625 -11.992188 10.140625 -11.703125 L 10.140625 -9.125 C 10.140625 -8.832031 10 -8.6875 9.71875 -8.6875 L 4.765625 -8.6875 L 4.765625 -3.4375 L 11.265625 -3.4375 C 11.535156 -3.4375 11.671875 -3.296875 11.671875 -3.015625 L 11.671875 -0.421875 C 11.671875 -0.140625 11.535156 0 11.265625 0 L 1.6875 0 C 1.425781 0 1.296875 -0.140625 1.296875 -0.421875 L 1.296875 -20.390625 C 1.296875 -20.660156 1.425781 -20.796875 1.6875 -20.796875 L 11.265625 -20.796875 C 11.535156 -20.796875 11.671875 -20.660156 11.671875 -20.390625 Z M 11.671875 -20.390625 "/></g></g></g><g fill="#ffffff" fill-opacity="1"><g transform="translate(193.32985, 230.504692)"><g><path d="M 1.296875 -0.421875 L 1.296875 -20.390625 C 1.296875 -20.660156 1.4375 -20.796875 1.71875 -20.796875 L 7.953125 -20.796875 C 9.179688 -20.796875 10.113281 -20.472656 10.75 -19.828125 C 11.382812 -19.191406 11.703125 -18.257812 11.703125 -17.03125 L 11.703125 -3.75 C 11.703125 -2.53125 11.382812 -1.597656 10.75 -0.953125 C 10.113281 -0.316406 9.179688 0 7.953125 0 L 1.71875 0 C 1.4375 0 1.296875 -0.140625 1.296875 -0.421875 Z M 4.84375 -3.4375 L 7.234375 -3.4375 C 7.921875 -3.4375 8.265625 -3.78125 8.265625 -4.46875 L 8.265625 -16.296875 C 8.265625 -17.015625 7.921875 -17.375 7.234375 -17.375 L 4.84375 -17.375 Z M 4.84375 -3.4375 "/></g></g></g><g fill="#ffffff" fill-opacity="1"><g transform="translate(207.105955, 230.504692)"><g><path d="M 11.703125 -20.390625 L 11.703125 -17.78125 C 11.703125 -17.507812 11.5625 -17.375 11.28125 -17.375 L 4.84375 -17.375 L 4.84375 -12.140625 L 9.71875 -12.140625 C 10 -12.140625 10.140625 -12 10.140625 -11.71875 L 10.140625 -9.125 C 10.140625 -8.84375 10 -8.703125 9.71875 -8.703125 L 4.84375 -8.703125 L 4.84375 -0.421875 C 4.84375 -0.140625 4.703125 0 4.421875 0 L 1.71875 0 C 1.4375 0 1.296875 -0.140625 1.296875 -0.421875 L 1.296875 -20.390625 C 1.296875 -20.660156 1.4375 -20.796875 1.71875 -20.796875 L 11.28125 -20.796875 C 11.5625 -20.796875 11.703125 -20.660156 11.703125 -20.390625 Z M 11.703125 -20.390625 "/></g></g></g><g fill="#ffffff" fill-opacity="1"><g transform="translate(220.882059, 230.504692)"><g><path d="M 1.296875 -3.75 L 1.296875 -17.0625 C 1.296875 -18.289062 1.613281 -19.21875 2.25 -19.84375 C 2.894531 -20.476562 3.828125 -20.796875 5.046875 -20.796875 L 7.953125 -20.796875 C 9.179688 -20.796875 10.113281 -20.476562 10.75 -19.84375 C 11.382812 -19.21875 11.703125 -18.289062 11.703125 -17.0625 L 11.703125 -3.75 C 11.703125 -2.53125 11.382812 -1.597656 10.75 -0.953125 C 10.113281 -0.316406 9.179688 0 7.953125 0 L 5.046875 0 C 3.828125 0 2.894531 -0.316406 2.25 -0.953125 C 1.613281 -1.597656 1.296875 -2.53125 1.296875 -3.75 Z M 5.796875 -3.359375 L 7.3125 -3.359375 C 8 -3.359375 8.34375 -3.703125 8.34375 -4.390625 L 8.34375 -16.40625 C 8.34375 -17.101562 8 -17.453125 7.3125 -17.453125 L 5.796875 -17.453125 C 5.109375 -17.453125 4.765625 -17.101562 4.765625 -16.40625 L 4.765625 -4.390625 C 4.765625 -3.703125 5.109375 -3.359375 5.796875 -3.359375 Z M 5.796875 -3.359375 "/></g></g></g><g fill="#ffffff" fill-opacity="1"><g transform="translate(234.658164, 230.504692)"><g><path d="M 11.984375 -17.0625 L 11.984375 -10.71875 C 11.984375 -8.976562 11.351562 -7.832031 10.09375 -7.28125 L 11.875 -0.46875 C 11.96875 -0.15625 11.847656 0 11.515625 0 L 8.8125 0 C 8.570312 0 8.425781 -0.117188 8.375 -0.359375 L 6.625 -6.96875 L 4.84375 -6.96875 L 4.84375 -0.421875 C 4.84375 -0.140625 4.703125 0 4.421875 0 L 1.71875 0 C 1.4375 0 1.296875 -0.140625 1.296875 -0.421875 L 1.296875 -20.390625 C 1.296875 -20.660156 1.4375 -20.796875 1.71875 -20.796875 L 8.234375 -20.796875 C 9.472656 -20.796875 10.40625 -20.476562 11.03125 -19.84375 C 11.664062 -19.21875 11.984375 -18.289062 11.984375 -17.0625 Z M 4.84375 -10.40625 L 7.40625 -10.40625 C 8.101562 -10.40625 8.453125 -10.75 8.453125 -11.4375 L 8.453125 -16.328125 C 8.453125 -17.023438 8.101562 -17.375 7.40625 -17.375 L 4.84375 -17.375 Z M 4.84375 -10.40625 "/></g></g></g><g fill="#ffffff" fill-opacity="1"><g transform="translate(248.720194, 230.504692)"><g><path d="M 15.515625 -20.796875 L 17.984375 -20.796875 C 18.347656 -20.796875 18.515625 -20.613281 18.484375 -20.25 L 16.25 -0.5 C 16.226562 -0.164062 16.046875 0 15.703125 0 L 13.15625 0 C 12.863281 0 12.671875 -0.15625 12.578125 -0.46875 L 9.875 -12.21875 L 7.15625 -0.4375 C 7.0625 -0.144531 6.867188 0 6.578125 0 L 3.984375 0 C 3.628906 0 3.445312 -0.164062 3.4375 -0.5 L 1.296875 -20.25 C 1.265625 -20.613281 1.429688 -20.796875 1.796875 -20.796875 L 4.265625 -20.796875 C 4.597656 -20.796875 4.78125 -20.632812 4.8125 -20.3125 L 5.828125 -8.140625 L 5.953125 -8.140625 L 8.53125 -20.328125 C 8.613281 -20.640625 8.800781 -20.796875 9.09375 -20.796875 L 10.65625 -20.796875 C 10.96875 -20.796875 11.160156 -20.640625 11.234375 -20.328125 L 13.78125 -8.140625 L 13.90625 -8.140625 L 14.96875 -20.3125 C 15.007812 -20.632812 15.191406 -20.796875 15.515625 -20.796875 Z M 15.515625 -20.796875 "/></g></g></g><g fill="#ffffff" fill-opacity="1"><g transform="translate(269.280259, 230.504692)"><g><path d="M 13.828125 0 L 11.078125 0 C 10.847656 0 10.707031 -0.117188 10.65625 -0.359375 L 9.9375 -4.15625 L 5.296875 -4.15625 L 4.609375 -0.359375 C 4.554688 -0.117188 4.414062 0 4.1875 0 L 1.40625 0 C 1.09375 0 0.976562 -0.144531 1.0625 -0.4375 L 5.375 -20.4375 C 5.425781 -20.675781 5.578125 -20.796875 5.828125 -20.796875 L 9.4375 -20.796875 C 9.675781 -20.796875 9.820312 -20.675781 9.875 -20.4375 L 14.203125 -0.4375 C 14.253906 -0.144531 14.128906 0 13.828125 0 Z M 9.28125 -7.171875 L 7.625 -16.25 L 5.953125 -7.171875 Z M 9.28125 -7.171875 "/></g></g></g><g fill="#ffffff" fill-opacity="1"><g transform="translate(285.291687, 230.504692)"><g><path d="M 11.984375 -17.0625 L 11.984375 -10.71875 C 11.984375 -8.976562 11.351562 -7.832031 10.09375 -7.28125 L 11.875 -0.46875 C 11.96875 -0.15625 11.847656 0 11.515625 0 L 8.8125 0 C 8.570312 0 8.425781 -0.117188 8.375 -0.359375 L 6.625 -6.96875 L 4.84375 -6.96875 L 4.84375 -0.421875 C 4.84375 -0.140625 4.703125 0 4.421875 0 L 1.71875 0 C 1.4375 0 1.296875 -0.140625 1.296875 -0.421875 L 1.296875 -20.390625 C 1.296875 -20.660156 1.4375 -20.796875 1.71875 -20.796875 L 8.234375 -20.796875 C 9.472656 -20.796875 10.40625 -20.476562 11.03125 -19.84375 C 11.664062 -19.21875 11.984375 -18.289062 11.984375 -17.0625 Z M 4.84375 -10.40625 L 7.40625 -10.40625 C 8.101562 -10.40625 8.453125 -10.75 8.453125 -11.4375 L 8.453125 -16.328125 C 8.453125 -17.023438 8.101562 -17.375 7.40625 -17.375 L 4.84375 -17.375 Z M 4.84375 -10.40625 "/></g></g></g><g fill="#ffffff" fill-opacity="1"><g transform="translate(299.353705, 230.504692)"><g><path d="M 1.296875 -0.421875 L 1.296875 -20.390625 C 1.296875 -20.660156 1.4375 -20.796875 1.71875 -20.796875 L 7.953125 -20.796875 C 9.179688 -20.796875 10.113281 -20.472656 10.75 -19.828125 C 11.382812 -19.191406 11.703125 -18.257812 11.703125 -17.03125 L 11.703125 -3.75 C 11.703125 -2.53125 11.382812 -1.597656 10.75 -0.953125 C 10.113281 -0.316406 9.179688 0 7.953125 0 L 1.71875 0 C 1.4375 0 1.296875 -0.140625 1.296875 -0.421875 Z M 4.84375 -3.4375 L 7.234375 -3.4375 C 7.921875 -3.4375 8.265625 -3.78125 8.265625 -4.46875 L 8.265625 -16.296875 C 8.265625 -17.015625 7.921875 -17.375 7.234375 -17.375 L 4.84375 -17.375 Z M 4.84375 -3.4375 "/></g></g></g><path stroke-linecap="butt" transform="matrix(0, 0.75, -0.75, 0, 140.563764, 198.371881)" fill="none" stroke-linejoin="miter" d="M -0.00105016 2.001686 L 57.691662 2.001686 " stroke="#ffffff" stroke-width="4" stroke-opacity="1" stroke-miterlimit="4"/><path fill="#ffffff" d="M 88.523438 222.765625 C 88.175781 222.765625 87.941406 222.53125 87.941406 222.183594 C 87.941406 221.832031 88.175781 221.601562 88.523438 221.601562 L 122.328125 221.601562 C 122.675781 221.601562 122.910156 221.832031 122.910156 222.183594 C 122.910156 222.53125 122.675781 222.765625 122.328125 222.765625 Z M 88.523438 222.765625 " fill-opacity="1" fill-rule="nonzero"/><g clip-path="url(#62655bfe9b)"><path fill="#ffffff" d="M 126.292969 204.574219 L 125.945312 203.992188 L 122.675781 197.929688 C 122.558594 197.699219 122.210938 197.582031 121.976562 197.699219 C 121.746094 197.816406 121.746094 198.164062 121.863281 198.394531 L 124.898438 203.992188 L 122.917969 205.15625 L 119.765625 199.445312 C 119.652344 199.210938 119.417969 199.210938 119.183594 199.328125 C 118.953125 199.445312 118.835938 199.675781 118.953125 199.910156 L 121.988281 205.621094 L 120.007812 206.667969 L 116.972656 201.074219 C 116.859375 200.839844 116.507812 200.722656 116.277344 200.839844 C 116.042969 200.957031 115.925781 201.304688 116.042969 201.539062 L 119.425781 207.484375 L 119.777344 208.179688 C 120.472656 209.578125 122.21875 210.507812 123.859375 209.695312 C 124.554688 210.972656 125.023438 212.371094 125.488281 213.890625 C 125.953125 215.636719 126.1875 217.394531 126.1875 219.253906 C 126.1875 224.964844 123.859375 230.097656 120.125 233.945312 C 116.390625 237.679688 111.144531 240.007812 105.433594 240.007812 C 99.722656 240.007812 94.476562 237.679688 90.746094 233.945312 C 87.011719 230.097656 84.683594 224.964844 84.683594 219.253906 C 84.683594 217.394531 84.917969 215.636719 85.382812 213.890625 C 85.730469 212.496094 86.3125 211.089844 87.011719 209.695312 C 88.523438 210.507812 90.164062 209.113281 91.210938 207.949219 C 91.90625 207.132812 92.488281 206.085938 92.957031 205.03125 C 93.304688 203.984375 93.421875 202.820312 93.304688 201.878906 C 93.1875 200.714844 92.605469 199.898438 91.675781 199.320312 C 90.628906 198.738281 89.464844 198.851562 88.40625 199.320312 C 87.476562 199.785156 86.660156 200.597656 85.964844 201.414062 C 85.371094 202.363281 84.792969 203.410156 84.441406 204.457031 C 83.976562 206.085938 83.859375 208.074219 85.488281 209.003906 C 84.792969 210.402344 84.210938 211.921875 83.742188 213.4375 C 83.277344 215.296875 83.046875 217.285156 83.046875 219.265625 C 83.046875 225.441406 85.488281 231.035156 89.570312 235.117188 C 93.652344 239.199219 99.25 241.644531 105.425781 241.644531 C 111.601562 241.644531 117.199219 239.199219 121.28125 235.117188 C 125.363281 231.035156 127.804688 225.441406 127.804688 219.265625 C 127.804688 217.285156 127.574219 215.296875 127.109375 213.4375 C 126.640625 211.921875 126.058594 210.402344 125.363281 208.886719 C 126.992188 208.074219 127.109375 206.09375 126.292969 204.574219 Z M 126.292969 204.574219 " fill-opacity="1" fill-rule="nonzero"/></g><path fill="#ffffff" d="M 106.824219 202.363281 C 106.472656 202.011719 106.007812 201.78125 105.425781 201.78125 C 104.84375 201.78125 104.378906 202.011719 103.914062 202.363281 C 103.5625 202.828125 103.332031 203.292969 103.332031 203.875 C 103.332031 203.875 103.332031 203.992188 103.332031 204.109375 C 99.597656 204.574219 96.105469 206.320312 93.652344 209.003906 C 90.96875 211.808594 89.222656 215.414062 88.988281 219.613281 C 88.988281 219.960938 89.222656 220.195312 89.570312 220.195312 L 121.28125 220.195312 C 121.628906 220.195312 121.863281 219.960938 121.863281 219.613281 C 121.628906 215.53125 119.882812 211.808594 117.199219 209.003906 C 114.636719 206.328125 111.253906 204.574219 107.402344 204.109375 C 107.519531 203.992188 107.519531 203.875 107.519531 203.875 C 107.519531 203.292969 107.289062 202.828125 106.824219 202.363281 Z M 118.011719 217.519531 C 117.664062 215.539062 116.730469 213.902344 115.570312 212.386719 C 114.40625 210.875 113.007812 209.710938 111.253906 208.773438 C 110.90625 208.65625 110.789062 208.304688 111.019531 208.074219 C 111.136719 207.722656 111.488281 207.609375 111.71875 207.722656 C 113.582031 208.65625 115.21875 210.050781 116.5 211.691406 C 117.78125 213.320312 118.710938 215.191406 119.175781 217.167969 C 119.292969 217.519531 119.058594 217.867188 118.710938 217.867188 C 118.476562 217.984375 118.128906 217.75 118.011719 217.519531 Z M 110.089844 208.304688 C 109.855469 208.191406 109.507812 208.074219 109.273438 207.957031 C 108.925781 207.839844 108.691406 207.839844 108.34375 207.722656 C 107.996094 207.722656 107.878906 207.375 107.878906 207.027344 C 107.996094 206.792969 108.34375 206.5625 108.578125 206.675781 C 108.925781 206.675781 109.273438 206.792969 109.625 206.910156 C 109.972656 207.027344 110.207031 207.144531 110.554688 207.257812 C 110.789062 207.375 111.019531 207.722656 110.90625 207.957031 C 110.789062 208.304688 110.4375 208.421875 110.089844 208.304688 Z M 110.089844 208.304688 " fill-opacity="1" fill-rule="nonzero"/><path fill="#ffffff" d="M 112.648438 232.664062 C 113 232.433594 113.582031 232.546875 113.8125 233.015625 C 114.046875 233.363281 113.929688 233.828125 113.582031 234.0625 C 112.300781 234.875 111.019531 235.457031 109.617188 235.808594 C 108.21875 236.273438 106.8125 236.503906 105.417969 236.503906 C 104.019531 236.503906 102.613281 236.273438 101.21875 235.808594 C 99.820312 235.457031 98.542969 234.875 97.253906 234.0625 C 96.902344 233.828125 96.785156 233.363281 97.019531 233.015625 C 97.253906 232.546875 97.71875 232.433594 98.183594 232.664062 C 99.230469 233.363281 100.394531 233.945312 101.683594 234.292969 C 102.847656 234.644531 104.128906 234.761719 105.417969 234.761719 C 106.695312 234.761719 107.976562 234.644531 109.148438 234.292969 C 110.4375 233.953125 111.601562 233.363281 112.648438 232.664062 Z M 112.648438 232.664062 " fill-opacity="1" fill-rule="nonzero"/><path fill="#ffffff" d="M 100.527344 226.605469 C 100.527344 226.851562 100.480469 227.089844 100.386719 227.316406 C 100.292969 227.546875 100.15625 227.746094 99.984375 227.921875 C 99.808594 228.097656 99.609375 228.230469 99.378906 228.324219 C 99.152344 228.417969 98.914062 228.464844 98.667969 228.464844 C 98.421875 228.464844 98.183594 228.417969 97.953125 228.324219 C 97.726562 228.230469 97.523438 228.097656 97.351562 227.921875 C 97.175781 227.746094 97.042969 227.546875 96.945312 227.316406 C 96.851562 227.089844 96.804688 226.851562 96.804688 226.605469 C 96.804688 226.359375 96.851562 226.121094 96.945312 225.890625 C 97.042969 225.664062 97.175781 225.460938 97.351562 225.289062 C 97.523438 225.113281 97.726562 224.980469 97.953125 224.882812 C 98.183594 224.789062 98.421875 224.742188 98.667969 224.742188 C 98.914062 224.742188 99.152344 224.789062 99.378906 224.882812 C 99.609375 224.980469 99.808594 225.113281 99.984375 225.289062 C 100.15625 225.460938 100.292969 225.664062 100.386719 225.890625 C 100.480469 226.121094 100.527344 226.359375 100.527344 226.605469 Z M 100.527344 226.605469 " fill-opacity="1" fill-rule="nonzero"/><path fill="#ffffff" d="M 114.046875 226.605469 C 114.046875 226.851562 114 227.089844 113.90625 227.316406 C 113.808594 227.546875 113.675781 227.746094 113.5 227.921875 C 113.328125 228.097656 113.125 228.230469 112.898438 228.324219 C 112.667969 228.417969 112.429688 228.464844 112.183594 228.464844 C 111.9375 228.464844 111.699219 228.417969 111.472656 228.324219 C 111.242188 228.230469 111.042969 228.097656 110.867188 227.921875 C 110.695312 227.746094 110.558594 227.546875 110.464844 227.316406 C 110.371094 227.089844 110.324219 226.851562 110.324219 226.605469 C 110.324219 226.359375 110.371094 226.121094 110.464844 225.890625 C 110.558594 225.664062 110.695312 225.460938 110.867188 225.289062 C 111.042969 225.113281 111.242188 224.980469 111.472656 224.882812 C 111.699219 224.789062 111.9375 224.742188 112.183594 224.742188 C 112.429688 224.742188 112.667969 224.789062 112.898438 224.882812 C 113.125 224.980469 113.328125 225.113281 113.5 225.289062 C 113.675781 225.460938 113.808594 225.664062 113.90625 225.890625 C 114 226.121094 114.046875 226.359375 114.046875 226.605469 Z M 114.046875 226.605469 " fill-opacity="1" fill-rule="nonzero"/></svg>