<svg xmlns="http://www.w3.org/2000/svg" xmlns:xlink="http://www.w3.org/1999/xlink" width="500" zoomAndPan="magnify" viewBox="0 0 375 374.999991" height="500" preserveAspectRatio="xMidYMid meet" version="1.0"><defs><clipPath id="4b7f0028d6"><path d="M 39.035156 41.460938 L 336 41.460938 L 336 333.210938 L 39.035156 333.210938 Z M 39.035156 41.460938 " clip-rule="nonzero"/></clipPath></defs><path fill="#ffffff" d="M 75.402344 208.398438 C 73.085938 208.398438 71.542969 206.855469 71.542969 204.539062 C 71.542969 202.222656 73.085938 200.679688 75.402344 200.679688 L 299.59375 200.679688 C 301.910156 200.679688 303.453125 202.222656 303.453125 204.539062 C 303.453125 206.855469 301.910156 208.398438 299.59375 208.398438 Z M 75.402344 208.398438 " fill-opacity="1" fill-rule="nonzero"/><g clip-path="url(#4b7f0028d6)"><path fill="#ffffff" d="M 325.894531 87.753906 L 323.578125 83.894531 L 301.910156 43.699219 C 301.136719 42.15625 298.820312 41.382812 297.277344 42.15625 C 295.734375 42.925781 295.734375 45.242188 296.503906 46.785156 L 316.632812 83.894531 L 303.511719 91.613281 L 282.613281 53.734375 C 281.839844 52.191406 280.296875 52.191406 278.753906 52.960938 C 277.210938 53.734375 276.4375 55.277344 277.210938 56.820312 L 297.335938 94.699219 L 284.214844 101.648438 L 264.089844 64.539062 C 263.316406 62.996094 261 62.222656 259.457031 62.996094 C 257.914062 63.765625 257.140625 66.082031 257.914062 67.625 L 280.355469 107.050781 L 282.671875 111.679688 C 287.304688 120.941406 298.878906 127.117188 309.746094 121.714844 C 314.375 130.203125 317.464844 139.46875 320.550781 149.558594 C 323.640625 161.136719 325.183594 172.773438 325.183594 185.125 C 325.183594 223.003906 309.746094 257.023438 284.988281 282.554688 C 260.230469 307.3125 225.4375 322.75 187.558594 322.75 C 149.679688 322.75 114.886719 307.3125 90.128906 282.554688 C 65.371094 257.023438 49.933594 223.003906 49.933594 185.125 C 49.933594 172.773438 51.476562 161.136719 54.5625 149.558594 C 56.878906 140.296875 60.738281 130.976562 65.371094 121.714844 C 75.402344 127.117188 86.269531 117.855469 93.214844 110.136719 C 97.847656 104.734375 101.707031 97.789062 104.792969 90.78125 C 107.109375 83.835938 107.878906 76.117188 107.109375 69.882812 C 106.335938 62.164062 102.476562 56.761719 96.300781 52.902344 C 89.355469 49.042969 81.636719 49.816406 74.632812 52.902344 C 68.457031 55.988281 63.054688 61.390625 58.421875 66.796875 C 54.503906 73.089844 50.644531 80.035156 48.328125 86.980469 C 45.242188 97.789062 44.46875 110.96875 55.277344 117.144531 C 50.644531 126.40625 46.785156 136.5 43.699219 146.53125 C 40.609375 158.882812 39.066406 172.0625 39.066406 185.183594 C 39.066406 226.152344 55.277344 263.257812 82.351562 290.332031 C 109.421875 317.40625 146.53125 333.613281 187.5 333.613281 C 228.464844 333.613281 265.574219 317.40625 292.648438 290.332031 C 319.71875 263.257812 335.929688 226.152344 335.929688 185.183594 C 335.929688 172.0625 334.386719 158.882812 331.296875 146.53125 C 328.210938 136.5 324.351562 126.40625 319.71875 116.371094 C 330.527344 110.96875 331.296875 97.847656 325.894531 87.753906 Z M 325.894531 87.753906 " fill-opacity="1" fill-rule="nonzero"/></g><path fill="#ffffff" d="M 196.761719 73.089844 C 194.445312 70.773438 191.355469 69.230469 187.5 69.230469 C 183.640625 69.230469 180.550781 70.773438 177.464844 73.089844 C 175.148438 76.175781 173.605469 79.261719 173.605469 83.121094 C 173.605469 83.121094 173.605469 83.894531 173.605469 84.667969 C 148.847656 87.753906 125.691406 99.332031 109.421875 117.144531 C 91.613281 135.726562 80.035156 159.652344 78.492188 187.5 C 78.492188 189.816406 80.035156 191.359375 82.351562 191.359375 L 292.648438 191.359375 C 294.960938 191.359375 296.503906 189.816406 296.503906 187.5 C 294.960938 160.425781 283.382812 135.726562 265.574219 117.144531 C 248.59375 99.390625 226.148438 87.753906 200.621094 84.667969 C 201.390625 83.894531 201.390625 83.121094 201.390625 83.121094 C 201.390625 79.261719 199.847656 76.175781 196.761719 73.089844 Z M 270.976562 173.605469 C 268.660156 160.484375 262.484375 149.621094 254.765625 139.585938 C 247.046875 129.550781 237.785156 121.832031 226.148438 115.597656 C 223.835938 114.828125 223.0625 112.511719 224.605469 110.96875 C 225.378906 108.652344 227.691406 107.882812 229.238281 108.652344 C 241.585938 114.828125 252.453125 124.089844 260.941406 134.953125 C 269.433594 145.761719 275.605469 158.167969 278.695312 171.289062 C 279.464844 173.605469 277.921875 175.921875 275.605469 175.921875 C 274.0625 176.695312 271.746094 175.148438 270.976562 173.605469 Z M 218.429688 112.511719 C 216.886719 111.738281 214.570312 110.96875 213.027344 110.195312 C 210.710938 109.425781 209.167969 109.425781 206.855469 108.652344 C 204.539062 108.652344 203.765625 106.335938 203.765625 104.023438 C 204.539062 102.476562 206.855469 100.933594 208.398438 101.707031 C 210.710938 101.707031 213.027344 102.476562 215.34375 103.25 C 217.660156 104.023438 219.203125 104.792969 221.519531 105.566406 C 223.0625 106.335938 224.605469 108.652344 223.832031 110.195312 C 223.0625 112.511719 220.746094 113.285156 218.429688 112.511719 Z M 218.429688 112.511719 " fill-opacity="1" fill-rule="nonzero"/><path fill="#ffffff" d="M 235.410156 274.0625 C 237.726562 272.519531 241.585938 273.292969 243.128906 276.378906 C 244.671875 278.695312 243.902344 281.78125 241.585938 283.324219 C 233.097656 288.730469 224.605469 292.589844 215.285156 294.902344 C 206.023438 297.992188 196.699219 299.535156 187.4375 299.535156 C 178.175781 299.535156 168.855469 297.992188 159.59375 294.902344 C 150.332031 292.589844 141.839844 288.730469 133.292969 283.324219 C 130.976562 281.78125 130.203125 278.695312 131.746094 276.378906 C 133.292969 273.292969 136.378906 272.519531 139.464844 274.0625 C 146.414062 278.695312 154.132812 282.554688 162.679688 284.871094 C 170.398438 287.183594 178.890625 287.957031 187.4375 287.957031 C 195.929688 287.957031 204.417969 287.183594 212.195312 284.871094 C 220.746094 282.613281 228.464844 278.695312 235.410156 274.0625 Z M 235.410156 274.0625 " fill-opacity="1" fill-rule="nonzero"/><path fill="#ffffff" d="M 155.023438 233.867188 C 155.023438 234.679688 154.941406 235.484375 154.785156 236.277344 C 154.625 237.074219 154.390625 237.847656 154.082031 238.59375 C 153.769531 239.34375 153.390625 240.054688 152.941406 240.730469 C 152.488281 241.402344 151.976562 242.027344 151.40625 242.601562 C 150.832031 243.175781 150.207031 243.6875 149.53125 244.136719 C 148.859375 244.585938 148.148438 244.96875 147.398438 245.277344 C 146.648438 245.589844 145.875 245.824219 145.082031 245.980469 C 144.285156 246.140625 143.484375 246.21875 142.671875 246.21875 C 141.859375 246.21875 141.058594 246.140625 140.261719 245.980469 C 139.46875 245.824219 138.695312 245.589844 137.945312 245.277344 C 137.195312 244.96875 136.484375 244.585938 135.8125 244.136719 C 135.136719 243.6875 134.511719 243.175781 133.941406 242.601562 C 133.367188 242.027344 132.855469 241.402344 132.402344 240.730469 C 131.953125 240.054688 131.574219 239.34375 131.261719 238.59375 C 130.953125 237.847656 130.71875 237.074219 130.558594 236.277344 C 130.402344 235.484375 130.324219 234.679688 130.324219 233.867188 C 130.324219 233.058594 130.402344 232.253906 130.558594 231.460938 C 130.71875 230.664062 130.953125 229.890625 131.261719 229.144531 C 131.574219 228.394531 131.953125 227.683594 132.402344 227.007812 C 132.855469 226.332031 133.367188 225.710938 133.941406 225.136719 C 134.511719 224.5625 135.136719 224.050781 135.8125 223.601562 C 136.484375 223.148438 137.195312 222.769531 137.945312 222.460938 C 138.695312 222.148438 139.46875 221.914062 140.261719 221.757812 C 141.058594 221.597656 141.859375 221.519531 142.671875 221.519531 C 143.484375 221.519531 144.285156 221.597656 145.082031 221.757812 C 145.875 221.914062 146.648438 222.148438 147.398438 222.460938 C 148.148438 222.769531 148.859375 223.148438 149.53125 223.601562 C 150.207031 224.050781 150.832031 224.5625 151.40625 225.136719 C 151.976562 225.710938 152.488281 226.332031 152.941406 227.007812 C 153.390625 227.683594 153.769531 228.394531 154.082031 229.144531 C 154.390625 229.890625 154.625 230.664062 154.785156 231.460938 C 154.941406 232.253906 155.023438 233.058594 155.023438 233.867188 Z M 155.023438 233.867188 " fill-opacity="1" fill-rule="nonzero"/><path fill="#ffffff" d="M 244.671875 233.867188 C 244.671875 234.679688 244.59375 235.484375 244.4375 236.277344 C 244.277344 237.074219 244.042969 237.847656 243.734375 238.59375 C 243.421875 239.34375 243.042969 240.054688 242.59375 240.730469 C 242.140625 241.402344 241.628906 242.027344 241.054688 242.601562 C 240.484375 243.175781 239.859375 243.6875 239.183594 244.136719 C 238.511719 244.585938 237.800781 244.96875 237.050781 245.277344 C 236.300781 245.589844 235.527344 245.824219 234.734375 245.980469 C 233.9375 246.140625 233.136719 246.21875 232.324219 246.21875 C 231.511719 246.21875 230.710938 246.140625 229.914062 245.980469 C 229.121094 245.824219 228.347656 245.589844 227.597656 245.277344 C 226.847656 244.96875 226.136719 244.585938 225.464844 244.136719 C 224.789062 243.6875 224.164062 243.175781 223.59375 242.601562 C 223.019531 242.027344 222.507812 241.402344 222.054688 240.730469 C 221.605469 240.054688 221.226562 239.34375 220.914062 238.59375 C 220.605469 237.847656 220.371094 237.074219 220.210938 236.277344 C 220.054688 235.484375 219.976562 234.679688 219.976562 233.867188 C 219.976562 233.058594 220.054688 232.253906 220.210938 231.460938 C 220.371094 230.664062 220.605469 229.890625 220.914062 229.144531 C 221.226562 228.394531 221.605469 227.683594 222.054688 227.007812 C 222.507812 226.332031 223.019531 225.710938 223.59375 225.136719 C 224.164062 224.5625 224.789062 224.050781 225.464844 223.601562 C 226.136719 223.148438 226.847656 222.769531 227.597656 222.460938 C 228.347656 222.148438 229.121094 221.914062 229.914062 221.757812 C 230.710938 221.597656 231.511719 221.519531 232.324219 221.519531 C 233.136719 221.519531 233.9375 221.597656 234.734375 221.757812 C 235.527344 221.914062 236.300781 222.148438 237.050781 222.460938 C 237.800781 222.769531 238.511719 223.148438 239.183594 223.601562 C 239.859375 224.050781 240.484375 224.5625 241.054688 225.136719 C 241.628906 225.710938 242.140625 226.332031 242.59375 227.007812 C 243.042969 227.683594 243.421875 228.394531 243.734375 229.144531 C 244.042969 229.890625 244.277344 230.664062 244.4375 231.460938 C 244.59375 232.253906 244.671875 233.058594 244.671875 233.867188 Z M 244.671875 233.867188 " fill-opacity="1" fill-rule="nonzero"/></svg>