<svg width="500" height="500" viewBox="0 0 500 500" fill="none" xmlns="http://www.w3.org/2000/svg">
<path d="M100.536 277.865C97.4479 277.865 95.3906 275.807 95.3906 272.719C95.3906 269.63 97.4479 267.573 100.536 267.573H399.458C402.547 267.573 404.604 269.63 404.604 272.719C404.604 275.807 402.547 277.865 399.458 277.865H100.536Z" fill="white"/>
<mask id="mask0_909_188" style="mask-type:luminance" maskUnits="userSpaceOnUse" x="52" y="55" width="396" height="390">
<path d="M52.0469 55.2812H448V444.281H52.0469V55.2812Z" fill="white"/>
</mask>
<g mask="url(#mask0_909_188)">
<path d="M434.526 117.005L431.437 111.859L402.547 58.2657C401.515 56.2084 398.427 55.1771 396.37 56.2084C394.312 57.2344 394.312 60.323 395.338 62.3803L422.177 111.859L404.682 122.151L376.818 71.6459C375.786 69.5886 373.729 69.5886 371.672 70.6146C369.614 71.6459 368.583 73.7032 369.614 75.7605L396.448 126.266L378.953 135.531L352.12 86.0521C351.088 83.9948 348 82.9636 345.943 83.9948C343.885 85.0209 342.854 88.1094 343.885 90.1667L373.807 142.734L376.896 148.906C383.073 161.255 398.505 169.49 412.995 162.287C419.167 173.604 423.286 185.958 427.401 199.412C431.521 214.849 433.578 230.365 433.578 246.833C433.578 297.339 412.995 342.698 379.984 376.74C346.974 409.75 300.583 430.333 250.078 430.333C199.573 430.333 153.182 409.75 120.172 376.74C87.1613 342.698 66.578 297.339 66.578 246.833C66.578 230.365 68.6353 214.849 72.7498 199.412C75.8384 187.063 80.9842 174.635 87.1613 162.287C100.536 169.49 115.026 157.141 124.286 146.849C130.463 139.646 135.609 130.385 139.724 121.042C142.812 111.781 143.838 101.49 142.812 93.1771C141.781 82.8855 136.635 75.6823 128.401 70.5365C119.14 65.3907 108.849 66.4219 99.5103 70.5365C91.2759 74.6511 84.0728 81.8542 77.8957 89.0625C72.6717 97.4532 67.5259 106.714 64.4373 115.974C60.3228 130.385 59.2915 147.958 73.703 156.193C67.5259 168.542 62.38 182 58.2655 195.375C54.1457 211.844 52.0884 229.417 52.0884 246.912C52.0884 301.537 73.703 351.01 109.802 387.109C145.896 423.208 195.375 444.818 250 444.818C304.62 444.818 354.099 423.208 390.198 387.109C426.292 351.01 447.906 301.537 447.906 246.912C447.906 229.417 445.849 211.844 441.729 195.375C437.614 182 432.469 168.542 426.292 155.162C440.703 147.958 441.729 130.464 434.526 117.005Z" fill="white"/>
</g>
<path d="M262.349 97.4532C259.26 94.3647 255.141 92.3074 250 92.3074C244.854 92.3074 240.734 94.3647 236.62 97.4532C233.531 101.568 231.474 105.682 231.474 110.828C231.474 110.828 231.474 111.859 231.474 112.891C198.464 117.005 167.589 132.443 145.896 156.193C122.151 180.969 106.714 212.87 104.656 250C104.656 253.089 106.714 255.146 109.802 255.146H390.198C393.281 255.146 395.339 253.089 395.339 250C393.281 213.901 377.844 180.969 354.099 156.193C331.458 132.521 301.531 117.005 267.495 112.891C268.521 111.859 268.521 110.828 268.521 110.828C268.521 105.682 266.464 101.568 262.349 97.4532ZM361.302 231.474C358.214 213.979 349.979 199.495 339.688 186.115C329.396 172.734 317.047 162.443 301.531 154.13C298.448 153.104 297.417 150.016 299.474 147.958C300.505 144.87 303.589 143.844 305.651 144.87C322.115 153.104 336.604 165.453 347.922 179.938C359.245 194.349 367.474 210.891 371.594 228.386C372.62 231.474 370.563 234.563 367.474 234.563C365.417 235.594 362.328 233.531 361.302 231.474ZM291.24 150.016C289.182 148.984 286.094 147.958 284.036 146.927C280.948 145.901 278.891 145.901 275.807 144.87C272.719 144.87 271.688 141.781 271.688 138.698C272.719 136.635 275.807 134.578 277.865 135.609C280.948 135.609 284.036 136.635 287.125 137.667C290.214 138.698 292.271 139.724 295.359 140.755C297.417 141.781 299.474 144.87 298.443 146.927C297.417 150.016 294.328 151.047 291.24 150.016Z" fill="white"/>
<path d="M313.88 365.417C316.969 363.359 322.114 364.391 324.172 368.505C326.229 371.594 325.203 375.708 322.114 377.766C310.797 384.974 299.474 390.12 287.047 393.203C274.698 397.323 262.265 399.38 249.916 399.38C237.568 399.38 225.14 397.323 212.791 393.203C200.443 390.12 189.12 384.974 177.724 377.766C174.635 375.708 173.604 371.594 175.661 368.505C177.724 364.391 181.838 363.359 185.953 365.417C195.219 371.594 205.51 376.74 216.906 379.828C227.198 382.911 238.521 383.943 249.916 383.943C261.239 383.943 272.557 382.911 282.927 379.828C294.328 376.818 304.62 371.594 313.88 365.417Z" fill="white"/>
<path d="M206.698 311.823C206.698 312.906 206.589 313.979 206.38 315.036C206.167 316.099 205.854 317.13 205.443 318.125C205.026 319.125 204.521 320.073 203.922 320.974C203.318 321.87 202.635 322.703 201.875 323.469C201.109 324.234 200.276 324.917 199.375 325.516C198.479 326.115 197.531 326.625 196.531 327.036C195.531 327.453 194.5 327.766 193.443 327.974C192.38 328.188 191.313 328.292 190.229 328.292C189.146 328.292 188.078 328.188 187.016 327.974C185.958 327.766 184.927 327.453 183.927 327.036C182.927 326.625 181.979 326.115 181.083 325.516C180.182 324.917 179.349 324.234 178.589 323.469C177.823 322.703 177.141 321.87 176.536 320.974C175.937 320.073 175.432 319.125 175.016 318.125C174.604 317.13 174.292 316.099 174.078 315.036C173.87 313.979 173.766 312.906 173.766 311.823C173.766 310.745 173.87 309.672 174.078 308.615C174.292 307.552 174.604 306.521 175.016 305.526C175.432 304.526 175.937 303.578 176.536 302.677C177.141 301.776 177.823 300.948 178.589 300.182C179.349 299.417 180.182 298.734 181.083 298.135C181.979 297.531 182.927 297.026 183.927 296.615C184.927 296.198 185.958 295.885 187.016 295.677C188.078 295.464 189.146 295.359 190.229 295.359C191.313 295.359 192.38 295.464 193.443 295.677C194.5 295.885 195.531 296.198 196.531 296.615C197.531 297.026 198.479 297.531 199.375 298.135C200.276 298.734 201.109 299.417 201.875 300.182C202.635 300.948 203.318 301.776 203.922 302.677C204.521 303.578 205.026 304.526 205.443 305.526C205.854 306.521 206.167 307.552 206.38 308.615C206.589 309.672 206.698 310.745 206.698 311.823Z" fill="white"/>
<path d="M326.229 311.823C326.229 312.906 326.125 313.979 325.916 315.036C325.703 316.099 325.39 317.13 324.979 318.125C324.562 319.125 324.057 320.073 323.458 320.974C322.854 321.87 322.172 322.703 321.406 323.469C320.646 324.234 319.812 324.917 318.911 325.516C318.015 326.115 317.067 326.625 316.067 327.036C315.067 327.453 314.036 327.766 312.979 327.974C311.916 328.188 310.849 328.292 309.765 328.292C308.682 328.292 307.614 328.188 306.552 327.974C305.494 327.766 304.463 327.453 303.463 327.036C302.463 326.625 301.515 326.115 300.619 325.516C299.718 324.917 298.885 324.234 298.125 323.469C297.359 322.703 296.677 321.87 296.073 320.974C295.474 320.073 294.968 319.125 294.552 318.125C294.14 317.13 293.828 316.099 293.614 315.036C293.406 313.979 293.302 312.906 293.302 311.823C293.302 310.745 293.406 309.672 293.614 308.615C293.828 307.552 294.14 306.521 294.552 305.526C294.968 304.526 295.474 303.578 296.073 302.677C296.677 301.776 297.359 300.948 298.125 300.182C298.885 299.417 299.718 298.734 300.619 298.135C301.515 297.531 302.463 297.026 303.463 296.615C304.463 296.198 305.494 295.885 306.552 295.677C307.614 295.464 308.682 295.359 309.765 295.359C310.849 295.359 311.916 295.464 312.979 295.677C314.036 295.885 315.067 296.198 316.067 296.615C317.067 297.026 318.015 297.531 318.911 298.135C319.812 298.734 320.646 299.417 321.406 300.182C322.172 300.948 322.854 301.776 323.458 302.677C324.057 303.578 324.562 304.526 324.979 305.526C325.39 306.521 325.703 307.552 325.916 308.615C326.125 309.672 326.229 310.745 326.229 311.823Z" fill="white"/>
</svg>
