<svg width="305" height="60" viewBox="0 0 305 60" fill="none" xmlns="http://www.w3.org/2000/svg">
<path d="M108.342 17.152V20.6312C108.342 20.9958 108.155 21.1729 107.78 21.1729H99.1965V28.152H105.696C106.071 28.152 106.259 28.3395 106.259 28.7145V32.1729C106.259 32.5479 106.071 32.7354 105.696 32.7354H99.1965V43.777C99.1965 44.152 99.009 44.3395 98.634 44.3395H95.0298C94.6548 44.3395 94.4673 44.152 94.4673 43.777V17.152C94.4673 16.7926 94.6548 16.6104 95.0298 16.6104H107.78C108.155 16.6104 108.342 16.7926 108.342 17.152Z" fill="black"/>
<path d="M126.669 17.152V20.6312C126.669 21.0218 126.486 21.2145 126.127 21.2145H117.46V28.152H124.065C124.44 28.152 124.627 28.3499 124.627 28.7354V32.1729C124.627 32.5635 124.44 32.7562 124.065 32.7562H117.46V39.7562H126.127C126.486 39.7562 126.669 39.9437 126.669 40.3187V43.777C126.669 44.152 126.486 44.3395 126.127 44.3395H113.356C113.007 44.3395 112.835 44.152 112.835 43.777V17.152C112.835 16.7926 113.007 16.6104 113.356 16.6104H126.127C126.486 16.6104 126.669 16.7926 126.669 17.152Z" fill="black"/>
<path d="M145.002 17.152V20.6312C145.002 21.0218 144.82 21.2145 144.461 21.2145H135.794V28.152H142.398C142.773 28.152 142.961 28.3499 142.961 28.7354V32.1729C142.961 32.5635 142.773 32.7562 142.398 32.7562H135.794V39.7562H144.461C144.82 39.7562 145.002 39.9437 145.002 40.3187V43.777C145.002 44.152 144.82 44.3395 144.461 44.3395H131.69C131.341 44.3395 131.169 44.152 131.169 43.777V17.152C131.169 16.7926 131.341 16.6104 131.69 16.6104H144.461C144.82 16.6104 145.002 16.7926 145.002 17.152Z" fill="black"/>
<path d="M149.502 43.777V17.152C149.502 16.7926 149.69 16.6104 150.065 16.6104H158.377C160.013 16.6104 161.258 17.0426 162.107 17.902C162.95 18.751 163.377 19.9958 163.377 21.6312V39.3395C163.377 40.9645 162.95 42.2093 162.107 43.0687C161.258 43.9176 160.013 44.3395 158.377 44.3395H150.065C149.69 44.3395 149.502 44.152 149.502 43.777ZM154.232 39.7562H157.419C158.336 39.7562 158.794 39.2979 158.794 38.3812V22.6104C158.794 21.652 158.336 21.1729 157.419 21.1729H154.232V39.7562Z" fill="black"/>
<path d="M181.746 17.152V20.6312C181.746 20.9958 181.558 21.1729 181.183 21.1729H172.6V28.152H179.1C179.475 28.152 179.662 28.3395 179.662 28.7145V32.1729C179.662 32.5479 179.475 32.7354 179.1 32.7354H172.6V43.777C172.6 44.152 172.412 44.3395 172.037 44.3395H168.433C168.058 44.3395 167.871 44.152 167.871 43.777V17.152C167.871 16.7926 168.058 16.6104 168.433 16.6104H181.183C181.558 16.6104 181.746 16.7926 181.746 17.152Z" fill="black"/>
<path d="M186.239 39.3395V21.5895C186.239 19.9541 186.661 18.7145 187.51 17.8812C188.369 17.0374 189.614 16.6104 191.239 16.6104H195.114C196.749 16.6104 197.994 17.0374 198.843 17.8812C199.687 18.7145 200.114 19.9541 200.114 21.5895V39.3395C200.114 40.9645 199.687 42.2093 198.843 43.0687C197.994 43.9176 196.749 44.3395 195.114 44.3395H191.239C189.614 44.3395 188.369 43.9176 187.51 43.0687C186.661 42.2093 186.239 40.9645 186.239 39.3395ZM192.239 39.8604H194.26C195.176 39.8604 195.635 39.402 195.635 38.4854V22.4645C195.635 21.5374 195.176 21.0687 194.26 21.0687H192.239C191.322 21.0687 190.864 21.5374 190.864 22.4645V38.4854C190.864 39.402 191.322 39.8604 192.239 39.8604Z" fill="black"/>
<path d="M218.857 21.5895V30.0479C218.857 32.3708 218.013 33.8968 216.336 34.6312L218.711 43.7145C218.836 44.1312 218.675 44.3395 218.232 44.3395H214.628C214.305 44.3395 214.112 44.1833 214.044 43.8604L211.711 35.0479H209.336V43.777C209.336 44.152 209.149 44.3395 208.774 44.3395H205.169C204.794 44.3395 204.607 44.152 204.607 43.777V17.152C204.607 16.7926 204.794 16.6104 205.169 16.6104H213.857C215.508 16.6104 216.753 17.0374 217.586 17.8812C218.43 18.7145 218.857 19.9541 218.857 21.5895ZM209.336 30.4645H212.753C213.68 30.4645 214.149 30.0062 214.149 29.0895V22.5687C214.149 21.6416 213.68 21.1729 212.753 21.1729H209.336V30.4645Z" fill="black"/>
<path d="M242.314 16.6104H245.606C246.09 16.6104 246.314 16.8551 246.273 17.3395L243.294 43.6729C243.262 44.1208 243.023 44.3395 242.564 44.3395H239.169C238.778 44.3395 238.523 44.1312 238.398 43.7145L234.794 28.0479L231.169 43.7562C231.044 44.1468 230.783 44.3395 230.398 44.3395H226.939C226.465 44.3395 226.221 44.1208 226.21 43.6729L223.356 17.3395C223.314 16.8551 223.533 16.6104 224.023 16.6104H227.314C227.757 16.6104 228.002 16.8291 228.044 17.2562L229.398 33.4854H229.564L233.002 17.2354C233.111 16.8187 233.361 16.6104 233.752 16.6104H235.835C236.252 16.6104 236.507 16.8187 236.606 17.2354L240.002 33.4854H240.169L241.585 17.2562C241.637 16.8291 241.882 16.6104 242.314 16.6104Z" fill="black"/>
<path d="M267.478 44.3395H263.811C263.504 44.3395 263.316 44.1833 263.249 43.8604L262.29 38.7979H256.103L255.186 43.8604C255.113 44.1833 254.926 44.3395 254.624 44.3395H250.915C250.499 44.3395 250.342 44.1468 250.457 43.7562L256.207 17.0895C256.275 16.7718 256.478 16.6104 256.811 16.6104H261.624C261.941 16.6104 262.134 16.7718 262.207 17.0895L267.978 43.7562C268.045 44.1468 267.879 44.3395 267.478 44.3395ZM261.415 34.777L259.207 22.6729L256.978 34.777H261.415Z" fill="black"/>
<path d="M286.368 21.5895V30.0479C286.368 32.3708 285.524 33.8968 283.847 34.6312L286.222 43.7145C286.347 44.1312 286.186 44.3395 285.743 44.3395H282.139C281.816 44.3395 281.623 44.1833 281.556 43.8604L279.222 35.0479H276.847V43.777C276.847 44.152 276.66 44.3395 276.285 44.3395H272.681C272.306 44.3395 272.118 44.152 272.118 43.777V17.152C272.118 16.7926 272.306 16.6104 272.681 16.6104H281.368C283.019 16.6104 284.264 17.0374 285.097 17.8812C285.941 18.7145 286.368 19.9541 286.368 21.5895ZM276.847 30.4645H280.264C281.191 30.4645 281.66 30.0062 281.66 29.0895V22.5687C281.66 21.6416 281.191 21.1729 280.264 21.1729H276.847V30.4645Z" fill="black"/>
<path d="M290.867 43.777V17.152C290.867 16.7926 291.055 16.6104 291.43 16.6104H299.742C301.378 16.6104 302.622 17.0426 303.471 17.902C304.315 18.751 304.742 19.9958 304.742 21.6312V39.3395C304.742 40.9645 304.315 42.2093 303.471 43.0687C302.622 43.9176 301.378 44.3395 299.742 44.3395H291.43C291.055 44.3395 290.867 44.152 290.867 43.777ZM295.596 39.7562H298.784C299.701 39.7562 300.159 39.2979 300.159 38.3812V22.6104C300.159 21.652 299.701 21.1729 298.784 21.1729H295.596V39.7562Z" fill="black"/>
<path d="M75.4165 1.49487V59.1876" stroke="black" stroke-width="4"/>
<path d="M8.03141 34.0208C7.56787 34.0208 7.25537 33.7083 7.25537 33.2448C7.25537 32.776 7.56787 32.4688 8.03141 32.4688H53.1043C53.5679 32.4688 53.8804 32.776 53.8804 33.2448C53.8804 33.7083 53.5679 34.0208 53.1043 34.0208H8.03141Z" fill="black"/>
<mask id="mask0_909_132" style="mask-type:luminance" maskUnits="userSpaceOnUse" x="0" y="0" width="61" height="60">
<path d="M0.71875 0.458252H60.6667V59.4426H0.71875V0.458252Z" fill="black"/>
</mask>
<g mask="url(#mask0_909_132)">
<path d="M58.3905 9.76566L57.9269 8.98962L53.5675 0.906288C53.4113 0.598996 52.9478 0.442746 52.6353 0.598996C52.328 0.755246 52.328 1.21879 52.4842 1.52608L56.5311 8.98962L53.8905 10.5417L49.6873 2.92712C49.5363 2.61462 49.2238 2.61462 48.9113 2.77087C48.604 2.92712 48.4478 3.23441 48.604 3.54691L52.6509 11.1615L50.0103 12.5573L45.9634 5.099C45.8123 4.7865 45.3436 4.63025 45.0363 4.7865C44.7238 4.94275 44.5675 5.40629 44.7238 5.71879L49.2342 13.6459L49.703 14.573C50.63 16.4375 52.9582 17.6771 55.1457 16.5938C56.0728 18.2969 56.6978 20.1615 57.3175 22.1875C57.9373 24.5157 58.2498 26.8594 58.2498 29.3386C58.2498 36.9532 55.1457 43.7969 50.1665 48.9271C45.1873 53.9063 38.1925 57.0105 30.578 57.0105C22.9634 57.0105 15.9686 53.9063 10.9946 48.9271C6.01546 43.7969 2.9113 36.9532 2.9113 29.3386C2.9113 26.8594 3.2238 24.5157 3.84359 22.1875C4.30713 20.3282 5.08317 18.4532 6.01546 16.5938C8.03109 17.6771 10.2186 15.8177 11.6144 14.2657C12.5415 13.1771 13.3175 11.7813 13.9425 10.375C14.4061 8.97921 14.5623 7.42712 14.4061 6.17191C14.2498 4.61983 13.4738 3.53129 12.2342 2.76045C10.8384 1.98441 9.2863 2.13545 7.87484 2.76045C6.63525 3.38025 5.54671 4.46358 4.61963 5.55212C3.82796 6.81775 3.05713 8.21358 2.58838 9.60941C1.96859 11.7813 1.81234 14.4323 3.98421 15.6719C3.05713 17.5365 2.28109 19.5625 1.65609 21.5834C1.0363 24.0625 0.729004 26.7136 0.729004 29.3542C0.729004 37.5886 3.98421 45.0469 9.42692 50.4896C14.8696 55.9323 22.3332 59.1927 30.5675 59.1927C38.8019 59.1927 46.2655 55.9323 51.7082 50.4896C57.1509 45.0469 60.4061 37.5886 60.4061 29.3542C60.4061 26.7136 60.0988 24.0625 59.479 21.5834C58.854 19.5625 58.078 17.5365 57.1509 15.5157C59.3228 14.4323 59.479 11.7917 58.3905 9.76566Z" fill="black"/>
</g>
<path d="M32.4321 6.81779C31.9634 6.34904 31.3436 6.04175 30.5675 6.04175C29.7915 6.04175 29.1717 6.34904 28.5519 6.81779C28.0832 7.43758 27.7759 8.05737 27.7759 8.83341C27.7759 8.83341 27.7759 8.98967 27.7759 9.14591C22.7967 9.76571 18.1405 12.0938 14.8696 15.672C11.2915 19.4115 8.96338 24.2188 8.65088 29.8178C8.65088 30.2813 8.96338 30.5938 9.42692 30.5938H51.7082C52.1717 30.5938 52.4842 30.2813 52.4842 29.8178C52.1717 24.3751 49.8436 19.4115 46.2655 15.672C42.8488 12.1042 38.3384 9.76571 33.203 9.14591C33.3592 8.98967 33.3592 8.83341 33.3592 8.83341C33.3592 8.05737 33.0519 7.43758 32.4321 6.81779ZM47.3488 27.0261C46.8853 24.3855 45.6405 22.2032 44.0936 20.1824C42.5415 18.1667 40.6769 16.6147 38.3384 15.3647C37.8748 15.2084 37.7186 14.7397 38.0259 14.4324C38.1821 13.9636 38.6509 13.8126 38.9582 13.9636C41.4425 15.2084 43.6248 17.0678 45.3332 19.2553C47.0415 21.4272 48.2811 23.922 48.9009 26.5574C49.0571 27.0261 48.7446 27.4897 48.2811 27.4897C47.9686 27.6459 47.505 27.3334 47.3488 27.0261ZM36.7863 14.7397C36.4738 14.5886 36.0103 14.4324 35.6978 14.2761C35.2342 14.1199 34.9217 14.1199 34.4582 13.9636C33.9946 13.9636 33.8384 13.5001 33.8384 13.0365C33.9946 12.724 34.4582 12.4167 34.7707 12.5678C35.2342 12.5678 35.6978 12.724 36.1665 12.8803C36.63 13.0365 36.9425 13.1928 37.4061 13.3438C37.7186 13.5001 38.0259 13.9636 37.8748 14.2761C37.7186 14.7397 37.2498 14.8959 36.7863 14.7397Z" fill="black"/>
<path d="M40.1979 47.2189C40.6667 46.9116 41.4427 47.0626 41.75 47.6876C42.0625 48.1512 41.9062 48.771 41.4427 49.0835C39.7344 50.1668 38.026 50.9428 36.1562 51.4116C34.2916 52.0314 32.4167 52.3387 30.5573 52.3387C28.6927 52.3387 26.8177 52.0314 24.9583 51.4116C23.0937 50.9428 21.3906 50.1668 19.6719 49.0835C19.2031 48.771 19.0469 48.1512 19.3594 47.6876C19.6719 47.0626 20.2916 46.9116 20.9114 47.2189C22.3073 48.1512 23.8594 48.9272 25.5781 49.3908C27.1302 49.8595 28.8385 50.0158 30.5573 50.0158C32.2604 50.0158 33.9687 49.8595 35.5312 49.3908C37.25 48.9376 38.8021 48.1512 40.1979 47.2189Z" fill="black"/>
<path d="M24.0363 39.1406C24.0363 39.4687 23.9738 39.7865 23.8488 40.0885C23.7238 40.3958 23.5415 40.6615 23.3123 40.8958C23.078 41.1302 22.8123 41.3073 22.505 41.4323C22.203 41.5573 21.8853 41.6198 21.5571 41.6198C21.229 41.6198 20.9113 41.5573 20.604 41.4323C20.3019 41.3073 20.0311 41.1302 19.8019 40.8958C19.5675 40.6615 19.3905 40.3958 19.2603 40.0885C19.1353 39.7865 19.0728 39.4687 19.0728 39.1406C19.0728 38.8125 19.1353 38.4948 19.2603 38.1875C19.3905 37.8854 19.5675 37.6146 19.8019 37.3854C20.0311 37.151 20.3019 36.974 20.604 36.8438C20.9113 36.7188 21.229 36.6562 21.5571 36.6562C21.8853 36.6562 22.203 36.7188 22.505 36.8438C22.8123 36.974 23.078 37.151 23.3123 37.3854C23.5415 37.6146 23.7238 37.8854 23.8488 38.1875C23.9738 38.4948 24.0363 38.8125 24.0363 39.1406Z" fill="black"/>
<path d="M42.0627 39.1406C42.0627 39.4687 42.0002 39.7865 41.8752 40.0885C41.745 40.3958 41.5679 40.6615 41.3335 40.8958C41.1043 41.1302 40.8335 41.3073 40.5314 41.4323C40.2241 41.5573 39.9064 41.6198 39.5783 41.6198C39.2502 41.6198 38.9325 41.5573 38.6304 41.4323C38.3231 41.3073 38.0575 41.1302 37.8231 40.8958C37.5939 40.6615 37.4116 40.3958 37.2866 40.0885C37.1616 39.7865 37.0991 39.4687 37.0991 39.1406C37.0991 38.8125 37.1616 38.4948 37.2866 38.1875C37.4116 37.8854 37.5939 37.6146 37.8231 37.3854C38.0575 37.151 38.3231 36.974 38.6304 36.8438C38.9325 36.7188 39.2502 36.6562 39.5783 36.6562C39.9064 36.6562 40.2241 36.7188 40.5314 36.8438C40.8335 36.974 41.1043 37.151 41.3335 37.3854C41.5679 37.6146 41.745 37.8854 41.8752 38.1875C42.0002 38.4948 42.0627 38.8125 42.0627 39.1406Z" fill="black"/>
</svg>
